<?xml version="1.0" encoding="UTF-8"?>
<svg xmlns="http://www.w3.org/2000/svg" onmouseup="{ if(window.parent.document.onmouseup) window.parent.document.onmouseup(arguments[0]);}" xml:space="preserve" enable-background="new 0 0 800 600" viewBox="0 0 800 600" y="0px" x="0px" id="Layer_1" version="1.1" xmlns:xlink="http://www.w3.org/1999/xlink"><rect data-cppathid="10000" height="641" width="823" fill="#CACACA" y="3" x="-10"/><polygon data-cppathid="10001" points="223.2,367.9 251.5,553.5 552.5,553.5 581.8,367.9 " fill="none"/><polygon data-cppathid="10002" points="624.6,96.6 182.1,97.2 217.6,330.9 587.6,330.9 " fill="none"/><polygon data-cppathid="10003" points="187.8,367.9 184.8,367.9 218.1,553.5 221.1,553.5 " fill="#95979A"/><polygon data-cppathid="10004" points="138.9,95.5 -4.3,95.5 -4.3,98.5 136.4,98.5 178.1,330.9 181.1,330.9 " fill="#95979A"/><polygon data-cppathid="10005" points="670.9,96.5 800.3,96.5 800.3,93.5 668.4,93.5 623.9,330.9 626.9,330.9 " fill="#95979A"/><polygon data-cppathid="10006" points="582.1,553.5 585.2,553.5 620,367.9 616.9,367.9 " fill="#95979A"/><polygon data-cppathid="10007" points="251.5,553.5 251.9,556.5 552,556.5 552.5,553.5 " fill="#95979A"/><polygon data-cppathid="10008" points="-9.7,553.5 -9.7,556.5 218.6,556.5 218.1,553.5 " fill="#95979A"/><polygon data-cppathid="10009" points="804.3,556.5 804.3,553.5 585.2,553.5 584.6,556.5 " fill="#95979A"/><polygon data-cppathid="10010" points="218.1,553.5 218.6,556.5 221.6,556.5 221.1,553.5 " fill="#95979A"/><polygon data-cppathid="10011" points="581.5,556.5 584.6,556.5 585.2,553.5 582.1,553.5 " fill="#95979A"/><polygon data-cppathid="10012" points="581.8,367.9 552.5,553.5 555.5,553.5 584.8,367.9 " fill="#95979A"/><polygon data-cppathid="10013" points="220.2,367.9 248.4,553.5 251.5,553.5 223.2,367.9 " fill="#95979A"/><polygon data-cppathid="10014" points="248.4,553.5 248.9,556.5 251.9,556.5 251.5,553.5 " fill="#95979A"/><polygon data-cppathid="10015" points="552.5,553.5 552,556.5 555,556.5 555.5,553.5 " fill="#95979A"/><polygon data-cppathid="10016" points="809,333.9 809,330.9 626.9,330.9 626.4,333.9 " fill="#95979A"/><polygon data-cppathid="10017" points="-7.7,330.9 -7.7,333.9 178.6,333.9 178.1,330.9 " fill="#95979A"/><polygon data-cppathid="10018" points="181.1,330.9 178.1,330.9 178.6,333.9 181.7,333.9 " fill="#95979A"/><polygon data-cppathid="10019" points="626.4,333.9 626.9,330.9 623.9,330.9 623.3,333.9 " fill="#95979A"/><polygon data-cppathid="10020" points="809,367.9 809,364.9 620.6,364.9 620,367.9 " fill="#95979A"/><polygon data-cppathid="10021" points="222.8,364.9 223.2,367.9 581.8,367.9 582.2,364.9 " fill="#95979A"/><polygon data-cppathid="10022" points="-7.7,364.9 -7.7,367.9 184.8,367.9 184.2,364.9 " fill="#95979A"/><polygon data-cppathid="10023" points="187.2,364.9 184.2,364.9 184.8,367.9 187.8,367.9 " fill="#95979A"/><polygon data-cppathid="10024" points="616.9,367.9 620,367.9 620.6,364.9 617.5,364.9 " fill="#95979A"/><polygon data-cppathid="10025" points="581.8,367.9 584.8,367.9 585.3,364.9 582.2,364.9 " fill="#95979A"/><polygon data-cppathid="10026" points="219.8,364.9 220.2,367.9 223.2,367.9 222.8,364.9 " fill="#95979A"/><polygon data-cppathid="10027" points="745,232 812,232 825,249 753.7,251.4 741,232 " fill="#C5C5C5"/><polygon data-cppathid="10028" points="741,232 740.7,243.9 754,263.9 753.7,251.4 " fill="#A7A8A5"/><polygon data-cppathid="10029" points="753.7,251.4 825,249 825,261.4 754,264 " fill="#625F5D"/><polygon data-cppathid="10030" points="687.5,456.5 814.5,456.5 827.5,473.5 696.2,475.9 683.5,456.5 " fill="#C5C5C5"/><polygon data-cppathid="10031" points="683.5,456.5 683.2,468.4 696.5,488.4 696.2,475.9 " fill="#A7A8A5"/><polygon data-cppathid="10032" points="696.2,475.9 827.5,473.5 827.5,485.9 696.5,488.5 " fill="#625F5D"/><polygon data-cppathid="10033" points="62.3,232 -4.7,232 -17.7,249 53.7,251.4 66.3,232 " fill="#C5C5C5"/><polygon data-cppathid="10034" points="66.3,232 66.7,243.9 53.3,263.9 53.7,251.4 " fill="#A7A8A5"/><polygon data-cppathid="10035" points="53.7,251.4 -17.7,249 -17.7,261.4 53.3,264 " fill="#625F5D"/><polygon data-cppathid="10036" points="119.8,456.5 -7.2,456.5 -20.2,473.5 111.2,475.9 123.8,456.5 " fill="#C5C5C5"/><polygon data-cppathid="10037" points="123.8,456.5 124.2,468.4 110.8,488.4 111.2,475.9 " fill="#A7A8A5"/><polygon data-cppathid="10038" points="111.2,475.9 -20.2,473.5 -20.2,485.9 110.8,488.5 " fill="#625F5D"/><polygon data-cppathid="10039" points="177,96 217.4,334 588.4,331.6 634,92.5 " stroke-miterlimit="10" stroke-width="3" stroke="#95979A" fill="none"/><polygon data-cppathid="10040" points="301.8,212.2 296.8,249.7 509.3,247.4 502.1,211.1 496.1,212.2 503.2,243.4 303.4,243.4 310,211.1   " fill="#A7A8A5"/><polygon data-cppathid="10041" points="509.3,247.4 507.6,263.3 296.8,265 296.8,249.7 " fill="#1A1A1A"/><polygon data-cppathid="10042" points="310,211.1 311.7,233.8 310,242.9 303.4,243.4 " fill="#6B6B68"/><polygon data-cppathid="10043" points="496.1,212.2 493.4,230.4 496.1,242.9 503.2,243.4 " fill="#6B6B68"/><polygon data-cppathid="10044" points="303,459 292,482 498,482 488,457 " fill="#C5C5C5"/><polygon data-cppathid="10045" points="292,482 292.5,492.5 498,492 498,482 " fill="#625F5D"/><rect data-cppathid="10046" height="641" width="823" fill="#CACACA" y="-17" x="-10"/><polygon data-cppathid="10047" points="223.2,367.9 251.5,553.5 552.5,553.5 581.8,367.9 " fill="none"/><polygon data-cppathid="10048" points="624.6,96.6 182.1,97.2 217.6,330.9 587.6,330.9 " fill="none"/><polygon data-cppathid="10049" points="187.8,367.9 184.8,367.9 218.1,553.5 221.1,553.5 " fill="#95979A"/><polygon data-cppathid="10050" points="138.9,95.5 -4.3,95.5 -4.3,98.5 136.4,98.5 178.1,330.9 181.1,330.9 " fill="#95979A"/><polygon data-cppathid="10051" points="670.9,96.5 800.3,96.5 800.3,93.5 668.4,93.5 623.9,330.9 626.9,330.9 " fill="#95979A"/><polygon data-cppathid="10052" points="582.1,553.5 585.2,553.5 620,367.9 616.9,367.9 " fill="#95979A"/><polygon data-cppathid="10053" points="251.5,553.5 251.9,556.5 552,556.5 552.5,553.5 " fill="#95979A"/><polygon data-cppathid="10054" points="-9.7,553.5 -9.7,556.5 218.6,556.5 218.1,553.5 " fill="#95979A"/><polygon data-cppathid="10055" points="804.3,556.5 804.3,553.5 585.2,553.5 584.6,556.5 " fill="#95979A"/><polygon data-cppathid="10056" points="218.1,553.5 218.6,556.5 221.6,556.5 221.1,553.5 " fill="#95979A"/><polygon data-cppathid="10057" points="581.5,556.5 584.6,556.5 585.2,553.5 582.1,553.5 " fill="#95979A"/><polygon data-cppathid="10058" points="581.8,367.9 552.5,553.5 555.5,553.5 584.8,367.9 " fill="#95979A"/><polygon data-cppathid="10059" points="220.2,367.9 248.4,553.5 251.5,553.5 223.2,367.9 " fill="#95979A"/><polygon data-cppathid="10060" points="248.4,553.5 248.9,556.5 251.9,556.5 251.5,553.5 " fill="#95979A"/><polygon data-cppathid="10061" points="552.5,553.5 552,556.5 555,556.5 555.5,553.5 " fill="#95979A"/><polygon data-cppathid="10062" points="809,333.9 809,330.9 626.9,330.9 626.4,333.9 " fill="#95979A"/><polygon data-cppathid="10063" points="-7.7,330.9 -7.7,333.9 178.6,333.9 178.1,330.9 " fill="#95979A"/><polygon data-cppathid="10064" points="181.1,330.9 178.1,330.9 178.6,333.9 181.7,333.9 " fill="#95979A"/><polygon data-cppathid="10065" points="626.4,333.9 626.9,330.9 623.9,330.9 623.3,333.9 " fill="#95979A"/><polygon data-cppathid="10066" points="809,367.9 809,364.9 620.6,364.9 620,367.9 " fill="#95979A"/><polygon data-cppathid="10067" points="222.8,364.9 223.2,367.9 581.8,367.9 582.2,364.9 " fill="#95979A"/><polygon data-cppathid="10068" points="-7.7,364.9 -7.7,367.9 184.8,367.9 184.2,364.9 " fill="#95979A"/><polygon data-cppathid="10069" points="187.2,364.9 184.2,364.9 184.8,367.9 187.8,367.9 " fill="#95979A"/><polygon data-cppathid="10070" points="616.9,367.9 620,367.9 620.6,364.9 617.5,364.9 " fill="#95979A"/><polygon data-cppathid="10071" points="581.8,367.9 584.8,367.9 585.3,364.9 582.2,364.9 " fill="#95979A"/><polygon data-cppathid="10072" points="219.8,364.9 220.2,367.9 223.2,367.9 222.8,364.9 " fill="#95979A"/><polygon data-cppathid="10073" points="745,232 812,232 825,249 753.7,251.4 741,232 " fill="#C5C5C5"/><polygon data-cppathid="10074" points="741,232 740.7,243.9 754,263.9 753.7,251.4 " fill="#A7A8A5"/><polygon data-cppathid="10075" points="753.7,251.4 825,249 825,261.4 754,264 " fill="#625F5D"/><polygon data-cppathid="10076" points="687.5,456.5 814.5,456.5 827.5,473.5 696.2,475.9 683.5,456.5 " fill="#C5C5C5"/><polygon data-cppathid="10077" points="683.5,456.5 683.2,468.4 696.5,488.4 696.2,475.9 " fill="#A7A8A5"/><polygon data-cppathid="10078" points="696.2,475.9 827.5,473.5 827.5,485.9 696.5,488.5 " fill="#625F5D"/><polygon data-cppathid="10079" points="62.3,232 -4.7,232 -17.7,249 53.7,251.4 66.3,232 " fill="#C5C5C5"/><polygon data-cppathid="10080" points="66.3,232 66.7,243.9 53.3,263.9 53.7,251.4 " fill="#A7A8A5"/><polygon data-cppathid="10081" points="53.7,251.4 -17.7,249 -17.7,261.4 53.3,264 " fill="#625F5D"/><polygon data-cppathid="10082" points="119.8,456.5 -7.2,456.5 -20.2,473.5 111.2,475.9 123.8,456.5 " fill="#C5C5C5"/><polygon data-cppathid="10083" points="123.8,456.5 124.2,468.4 110.8,488.4 111.2,475.9 " fill="#A7A8A5"/><polygon data-cppathid="10084" points="111.2,475.9 -20.2,473.5 -20.2,485.9 110.8,488.5 " fill="#625F5D"/><polygon data-cppathid="10085" points="177,96 217.4,334 588.4,331.6 634,92.5 " stroke-miterlimit="10" stroke-width="3" stroke="#95979A" fill="none"/><polygon data-cppathid="10086" points="301.8,212.2 296.8,249.7 509.3,247.4 502.1,211.1 496.1,212.2 503.2,243.4 303.4,243.4 310,211.1   " fill="#A7A8A5"/><polygon data-cppathid="10087" points="509.3,247.4 507.6,263.3 296.8,265 296.8,249.7 " fill="#1A1A1A"/><polygon data-cppathid="10088" points="310,211.1 311.7,233.8 310,242.9 303.4,243.4 " fill="#6B6B68"/><polygon data-cppathid="10089" points="496.1,212.2 493.4,230.4 496.1,242.9 503.2,243.4 " fill="#6B6B68"/><polygon data-cppathid="10090" points="303,459 292,482 498,482 488,457 " fill="#C5C5C5"/><polygon data-cppathid="10091" points="292,482 292.5,492.5 498,492 498,482 " fill="#625F5D"/></svg>