<?xml version="1.0" encoding="UTF-8"?>
<svg xmlns="http://www.w3.org/2000/svg" onmouseup="{ if(window.parent.document.onmouseup) window.parent.document.onmouseup(arguments[0]);}" viewBox="0 0 800 600" data-name="Layer 1" id="Layer_1"><rect data-cppathid="10000" fill="#cacaca" height="641" width="823" x="-11"/><polygon data-cppathid="10001" fill="none" points="222.25 364.83 250.48 550.5 551.48 550.5 580.77 364.83 222.25 364.83"/><polygon data-cppathid="10002" fill="none" points="623.58 93.5 181.08 94.16 216.62 327.83 586.61 327.83 623.58 93.5"/><polygon data-cppathid="10003" fill="#95979a" points="186.79 364.83 183.75 364.83 217.06 550.5 220.11 550.5 186.79 364.83"/><polygon data-cppathid="10004" fill="#95979a" points="137.92 92.5 -5.33 92.5 -5.33 95.5 135.41 95.5 177.1 327.83 180.15 327.83 137.92 92.5"/><polygon data-cppathid="10005" fill="#95979a" points="669.91 93.5 799.33 93.5 799.33 90.5 667.42 90.5 622.88 327.83 625.94 327.83 669.91 93.5"/><polygon data-cppathid="10006" fill="#95979a" points="581.1 550.5 584.15 550.5 618.99 364.83 615.94 364.83 581.1 550.5"/><polygon data-cppathid="10007" fill="#95979a" points="250.48 550.5 250.94 553.5 551.01 553.5 551.48 550.5 250.48 550.5"/><polygon data-cppathid="10008" fill="#95979a" points="-10.67 550.5 -10.67 553.5 217.6 553.5 217.06 550.5 -10.67 550.5"/><polygon data-cppathid="10009" fill="#95979a" points="803.33 553.5 803.33 550.5 584.15 550.5 583.59 553.5 803.33 553.5"/><polygon data-cppathid="10010" fill="#95979a" points="217.06 550.5 217.6 553.5 220.65 553.5 220.11 550.5 217.06 550.5"/><polygon data-cppathid="10011" fill="#95979a" points="580.53 553.5 583.59 553.5 584.15 550.5 581.1 550.5 580.53 553.5"/><polygon data-cppathid="10012" fill="#95979a" points="580.77 364.83 551.48 550.5 554.52 550.5 583.81 364.83 580.77 364.83"/><polygon data-cppathid="10013" fill="#95979a" points="181.08 94.16 623.58 93.5 611.96 163.33 615 163.33 627.09 90.5 177.59 91.17 188.97 164.5 192 164.5 181.08 94.16"/><polygon data-cppathid="10014" fill="#95979a" points="219.21 364.83 247.45 550.5 250.48 550.5 222.25 364.83 219.21 364.83"/><polygon data-cppathid="10015" fill="#95979a" points="247.45 550.5 247.91 553.5 250.94 553.5 250.48 550.5 247.45 550.5"/><polygon data-cppathid="10016" fill="#95979a" points="551.48 550.5 551.01 553.5 554.05 553.5 554.52 550.5 551.48 550.5"/><polygon data-cppathid="10017" fill="#95979a" points="586.61 327.83 216.62 327.83 217.07 330.83 586.14 330.83 586.61 327.83"/><polygon data-cppathid="10018" fill="#95979a" points="808 330.83 808 327.83 625.94 327.83 625.37 330.83 808 330.83"/><polygon data-cppathid="10019" fill="#95979a" points="-8.67 327.83 -8.67 330.83 177.64 330.83 177.1 327.83 -8.67 327.83"/><polygon data-cppathid="10020" fill="#95979a" points="180.15 327.83 177.1 327.83 177.64 330.83 180.69 330.83 180.15 327.83"/><polygon data-cppathid="10021" fill="#95979a" points="625.37 330.83 625.94 327.83 622.88 327.83 622.32 330.83 625.37 330.83"/><polygon data-cppathid="10022" fill="#95979a" points="217.07 330.83 216.62 327.83 213.58 327.83 214.04 330.83 217.07 330.83"/><polygon data-cppathid="10023" fill="#95979a" points="586.14 330.83 589.17 330.83 589.65 327.83 586.61 327.83 586.14 330.83"/><polygon data-cppathid="10024" fill="#95979a" points="808 364.83 808 361.83 619.56 361.83 618.99 364.83 808 364.83"/><polygon data-cppathid="10025" fill="#95979a" points="221.79 361.83 222.25 364.83 580.77 364.83 581.25 361.83 221.79 361.83"/><polygon data-cppathid="10026" fill="#95979a" points="-8.67 361.83 -8.67 364.83 183.75 364.83 183.21 361.83 -8.67 361.83"/><polygon data-cppathid="10027" fill="#95979a" points="186.25 361.83 183.21 361.83 183.75 364.83 186.79 364.83 186.25 361.83"/><polygon data-cppathid="10028" fill="#95979a" points="615.94 364.83 618.99 364.83 619.56 361.83 616.5 361.83 615.94 364.83"/><polygon data-cppathid="10029" fill="#95979a" points="580.77 364.83 583.81 364.83 584.28 361.83 581.25 361.83 580.77 364.83"/><polygon data-cppathid="10030" fill="#95979a" points="218.75 361.83 219.21 364.83 222.25 364.83 221.79 361.83 218.75 361.83"/><polygon data-cppathid="10031" fill="#c5c5c5" points="744 229 811 229 824 246 752.67 248.33 740 229 744 229"/><polygon data-cppathid="10032" fill="#a7a8a5" points="740 229 739.67 240.83 753 260.83 752.67 248.33 740 229"/><polygon data-cppathid="10033" fill="#625f5d" points="752.67 248.33 824 246 824 258.33 753 260.92 752.67 248.33"/><polygon data-cppathid="10034" fill="#c5c5c5" points="686.5 453.5 813.5 453.5 826.5 470.5 695.17 472.83 682.5 453.5 686.5 453.5"/><polygon data-cppathid="10035" fill="#a7a8a5" points="682.5 453.5 682.17 465.33 695.5 485.33 695.17 472.83 682.5 453.5"/><polygon data-cppathid="10036" fill="#625f5d" points="695.17 472.83 826.5 470.5 826.5 482.83 695.5 485.42 695.17 472.83"/><polygon data-cppathid="10037" fill="#c5c5c5" points="61.33 229 -5.67 229 -18.67 246 52.67 248.33 65.33 229 61.33 229"/><polygon data-cppathid="10038" fill="#a7a8a5" points="65.33 229 65.67 240.83 52.33 260.83 52.67 248.33 65.33 229"/><polygon data-cppathid="10039" fill="#625f5d" points="52.67 248.33 -18.67 246 -18.67 258.33 52.33 260.92 52.67 248.33"/><polygon data-cppathid="10040" fill="#c5c5c5" points="118.83 453.5 -8.17 453.5 -21.17 470.5 110.17 472.83 122.83 453.5 118.83 453.5"/><polygon data-cppathid="10041" fill="#a7a8a5" points="122.83 453.5 123.17 465.33 109.83 485.33 110.17 472.83 122.83 453.5"/><polygon data-cppathid="10042" fill="#625f5d" points="110.17 472.83 -21.17 470.5 -21.17 482.83 109.83 485.42 110.17 472.83"/><polygon data-cppathid="10043" fill="#53504e" points="211.67 94.17 158.67 224.67 173.33 224.67 226.67 94 211.67 94.17"/><polygon data-cppathid="10044" fill="#1a1a1a" points="212 94.17 190 149.33 181.08 94.16 212 94.17"/><polygon data-cppathid="10045" fill="#53504e" points="592.67 94.17 645.67 224.67 631 224.67 577.67 94 592.67 94.17"/><polygon data-cppathid="10046" fill="#1a1a1a" points="592.33 94.17 614.33 149.33 623.25 94.16 592.33 94.17"/><polygon data-cppathid="10047" fill="#9d6835" points="199.33 176.36 201.33 164.24 607 169.25 610 181.38 199.33 176.36"/><polygon data-cppathid="10048" fill="#7f5428" points="198 186.81 196.33 173.85 609.33 178.87 612 192.67 198 186.81"/><polygon data-cppathid="10049" fill="#a16b37" points="194.33 197.68 196.33 185.56 609.33 190.58 614.33 202.28 194.33 197.68"/><polygon data-cppathid="10050" fill="#7f5428" points="221.33 107.38 220.33 94 577.67 94 581.67 112.4 221.33 107.38"/><path data-cppathid="10051" fill="#9d6835" d="M217.67,117.83c0-1.25.66-15.47.66-15.47l365,2.93L587,121.18Z"/><polygon data-cppathid="10052" fill="#7f5428" points="216 126.19 216 110.31 587.67 115.74 590.67 129.96 216 126.19"/><polygon data-cppathid="10053" fill="#9d6835" points="213 138.32 213.67 120.34 591.67 124.52 594.33 138.74 213 138.32"/><polygon data-cppathid="10054" fill="#7f5428" points="212 147.51 211 131.21 596 132.88 597.33 150.86 212 147.51"/><polygon data-cppathid="10055" fill="#9d6835" points="207.33 156.29 207 143.75 599.67 144.17 600.33 158.38 207.33 156.29"/><polygon data-cppathid="10056" fill="#7f5428" points="203.33 166.33 204.67 152.53 602 151.69 602.67 170.09 203.33 166.33"/><path data-cppathid="10057" fill="#704620" d="M593,196.11l-8.6-31.69c-1.62-3.11-4.11-4.92-6.73-4.92h-123c-2.34,0-4.54,1.65-5.95,4.45l-12,28.65-248.67-1-.67,22.07,430.67-5-.33-13.54Z"/><rect data-cppathid="10058" fill="#fff" transform="translate(1030.33 364.13) rotate(-180)" rx="5.93" height="30.09" width="129.67" y="167.02" x="450.33"/><path data-cppathid="10059" fill="#8c5d2e" d="M206.67,210.65l8.6-31.69c1.62-3.1,4.1-4.92,6.73-4.92H345.05c2.33,0,4.54,1.65,5.95,4.45l12,28.65H621.33l.34,16.05L181,225.7l1.33-16.55Z"/><rect data-cppathid="10060" fill="#fff" rx="5.93" height="30.09" width="129.67" y="181.57" x="219.67"/><polygon data-cppathid="10061" fill="#95979a" points="129 225 677 222 684 237 125.33 240.67 129 225"/><polygon data-cppathid="10062" fill="#5a5a57" points="125.33 240.67 178 494.67 628.67 492 684 237 125.33 240.67"/><polygon data-cppathid="10063" fill="#a7a8a5" points="275.67 351.33 269.67 395.33 527.67 392.67 519 350 511.67 351.33 520.33 388 277.67 388 285.67 350 275.67 351.33"/><polygon data-cppathid="10064" fill="#1a1a1a" points="527.67 392.67 525.67 411.33 269.67 413.33 269.67 395.33 527.67 392.67"/><polygon data-cppathid="10065" fill="#6b6b68" points="285.67 350 287.67 376.67 285.67 387.33 277.67 388 285.67 350"/><polygon data-cppathid="10066" fill="#6b6b68" points="511.67 351.33 508.33 372.67 511.67 387.33 520.33 388 511.67 351.33"/><path data-cppathid="10067" d="M251.21,192.42l.95.24a3.26,3.26,0,0,1-1.07,1.78,3,3,0,0,1-1.9.61,3.45,3.45,0,0,1-1.88-.47,3,3,0,0,1-1.1-1.37,4.87,4.87,0,0,1-.38-1.92,4.18,4.18,0,0,1,.43-1.95,3,3,0,0,1,1.21-1.26,3.56,3.56,0,0,1,1.74-.43,2.74,2.74,0,0,1,2.83,2.08l-.94.22a2.17,2.17,0,0,0-.72-1.14,2,2,0,0,0-1.19-.35,2.34,2.34,0,0,0-1.38.39,2.13,2.13,0,0,0-.78,1.06,4.33,4.33,0,0,0-.22,1.38,4.49,4.49,0,0,0,.26,1.59,2,2,0,0,0,.83,1,2.29,2.29,0,0,0,1.22.34,2,2,0,0,0,1.34-.46A2.35,2.35,0,0,0,251.21,192.42Z"/><path data-cppathid="10068" d="M252.89,192.33a2.64,2.64,0,0,1,.8-2.13,2.43,2.43,0,0,1,1.63-.58,2.37,2.37,0,0,1,1.75.7,2.69,2.69,0,0,1,.67,1.94,3.47,3.47,0,0,1-.3,1.58,2.13,2.13,0,0,1-.87.89,2.55,2.55,0,0,1-1.25.31,2.34,2.34,0,0,1-1.76-.69A2.8,2.8,0,0,1,252.89,192.33Zm.9,0a2.22,2.22,0,0,0,.43,1.5,1.4,1.4,0,0,0,1.1.49,1.37,1.37,0,0,0,1.09-.5,2.26,2.26,0,0,0,.43-1.52,2.08,2.08,0,0,0-.44-1.45,1.38,1.38,0,0,0-1.08-.5,1.43,1.43,0,0,0-1.1.49A2.21,2.21,0,0,0,253.79,192.33Z"/><path data-cppathid="10069" d="M258.77,194.93v-5.19h.79v.73a1.73,1.73,0,0,1,.65-.61,1.78,1.78,0,0,1,.92-.24,1.72,1.72,0,0,1,.95.24,1.34,1.34,0,0,1,.52.67,1.87,1.87,0,0,1,1.6-.91,1.62,1.62,0,0,1,1.19.43,1.86,1.86,0,0,1,.41,1.32v3.56h-.87v-3.27a2.32,2.32,0,0,0-.09-.76.74.74,0,0,0-.31-.37.91.91,0,0,0-.53-.14,1.22,1.22,0,0,0-.9.36,1.6,1.6,0,0,0-.37,1.16v3h-.87v-3.37a1.5,1.5,0,0,0-.22-.88.8.8,0,0,0-.7-.29,1.28,1.28,0,0,0-.69.19,1.07,1.07,0,0,0-.45.57,3.05,3.05,0,0,0-.15,1.09v2.69Z"/><path data-cppathid="10070" d="M267.1,194.93v-5.19h.79v.73a1.73,1.73,0,0,1,.65-.61,1.78,1.78,0,0,1,.92-.24,1.72,1.72,0,0,1,1,.24,1.34,1.34,0,0,1,.52.67,1.87,1.87,0,0,1,1.6-.91,1.62,1.62,0,0,1,1.19.43,1.86,1.86,0,0,1,.41,1.32v3.56h-.87v-3.27a2.32,2.32,0,0,0-.09-.76.74.74,0,0,0-.31-.37.91.91,0,0,0-.53-.14,1.22,1.22,0,0,0-.9.36,1.6,1.6,0,0,0-.37,1.16v3h-.87v-3.37a1.5,1.5,0,0,0-.22-.88.8.8,0,0,0-.7-.29,1.28,1.28,0,0,0-.69.19,1.07,1.07,0,0,0-.45.57,3.05,3.05,0,0,0-.15,1.09v2.69Z"/><path data-cppathid="10071" d="M278.83,194.93v-.76a1.89,1.89,0,0,1-1.64.87,2.06,2.06,0,0,1-.86-.17,1.55,1.55,0,0,1-.59-.44,1.64,1.64,0,0,1-.27-.66,4.13,4.13,0,0,1-.05-.82v-3.21h.87v2.88a4.43,4.43,0,0,0,.06.92.87.87,0,0,0,.35.55,1.1,1.1,0,0,0,.66.2,1.42,1.42,0,0,0,.75-.21,1.09,1.09,0,0,0,.49-.55,2.9,2.9,0,0,0,.14-1v-2.78h.88v5.19Z"/><path data-cppathid="10072" d="M281,194.93v-5.19h.79v.74a1.87,1.87,0,0,1,1.65-.86,2.2,2.2,0,0,1,.86.17,1.37,1.37,0,0,1,.59.44,1.72,1.72,0,0,1,.27.65,5.4,5.4,0,0,1,0,.86v3.19h-.88v-3.16a2.32,2.32,0,0,0-.1-.8.88.88,0,0,0-.36-.43,1.24,1.24,0,0,0-.62-.15,1.43,1.43,0,0,0-1,.35,1.77,1.77,0,0,0-.4,1.35v2.84Z"/><path data-cppathid="10073" d="M286.56,188.78v-1h.88v1Zm0,6.15v-5.19h.88v5.19Z"/><path data-cppathid="10074" d="M292.16,193l.87.11a2.27,2.27,0,0,1-.73,1.4,2.08,2.08,0,0,1-1.43.5,2.23,2.23,0,0,1-1.71-.69,2.85,2.85,0,0,1-.65-2,3.54,3.54,0,0,1,.28-1.47,2,2,0,0,1,.85-.94,2.51,2.51,0,0,1,1.23-.32,2.2,2.2,0,0,1,1.39.43,2,2,0,0,1,.68,1.21l-.85.14a1.47,1.47,0,0,0-.43-.79,1.11,1.11,0,0,0-.75-.26,1.39,1.39,0,0,0-1.08.47,2.25,2.25,0,0,0-.42,1.51,2.38,2.38,0,0,0,.4,1.52,1.33,1.33,0,0,0,1.05.47,1.18,1.18,0,0,0,.86-.32A1.5,1.5,0,0,0,292.16,193Z"/><path data-cppathid="10075" d="M297.16,194.29a3.24,3.24,0,0,1-.94.58,2.57,2.57,0,0,1-1,.17,1.92,1.92,0,0,1-1.31-.41,1.38,1.38,0,0,1-.46-1.07,1.4,1.4,0,0,1,.18-.7,1.36,1.36,0,0,1,.45-.5,2.26,2.26,0,0,1,.63-.29,5.14,5.14,0,0,1,.78-.13,9.3,9.3,0,0,0,1.57-.3c0-.12,0-.2,0-.23a1,1,0,0,0-.25-.76,1.48,1.48,0,0,0-1-.3,1.52,1.52,0,0,0-.92.22,1.32,1.32,0,0,0-.44.77l-.86-.12a2.15,2.15,0,0,1,.39-.89,1.65,1.65,0,0,1,.78-.52,3.46,3.46,0,0,1,1.17-.19,3.2,3.2,0,0,1,1.08.16,1.43,1.43,0,0,1,.61.39,1.52,1.52,0,0,1,.28.6,6.56,6.56,0,0,1,0,.81v1.17a11.54,11.54,0,0,0,.06,1.55,1.82,1.82,0,0,0,.22.63h-.92A2.08,2.08,0,0,1,297.16,194.29Zm-.07-2a7,7,0,0,1-1.44.34,3.51,3.51,0,0,0-.76.17.77.77,0,0,0-.35.29.77.77,0,0,0,.15,1,1.09,1.09,0,0,0,.77.24,1.84,1.84,0,0,0,.91-.23,1.34,1.34,0,0,0,.58-.6,2.24,2.24,0,0,0,.14-.88Z"/><path data-cppathid="10076" d="M301.26,194.14l.13.78a3.47,3.47,0,0,1-.67.08,1.51,1.51,0,0,1-.74-.16.87.87,0,0,1-.37-.39,3.2,3.2,0,0,1-.11-1v-3h-.64v-.68h.64v-1.28l.88-.53v1.81h.88v.68h-.88v3a1.6,1.6,0,0,0,0,.48.35.35,0,0,0,.15.17.61.61,0,0,0,.3.06Z"/><path data-cppathid="10077" d="M302.12,188.78v-1H303v1Zm0,6.15v-5.19H303v5.19Z"/><path data-cppathid="10078" d="M304,192.33a2.67,2.67,0,0,1,.8-2.13,2.45,2.45,0,0,1,1.64-.58,2.34,2.34,0,0,1,1.74.7,2.65,2.65,0,0,1,.68,1.94,3.47,3.47,0,0,1-.3,1.58,2.13,2.13,0,0,1-.87.89,2.55,2.55,0,0,1-1.25.31,2.33,2.33,0,0,1-1.76-.69A2.8,2.8,0,0,1,304,192.33Zm.91,0a2.22,2.22,0,0,0,.43,1.5,1.4,1.4,0,0,0,1.1.49,1.34,1.34,0,0,0,1.08-.5,2.26,2.26,0,0,0,.44-1.52,2.13,2.13,0,0,0-.44-1.45,1.38,1.38,0,0,0-1.08-.5,1.43,1.43,0,0,0-1.1.49A2.21,2.21,0,0,0,304.92,192.33Z"/><path data-cppathid="10079" d="M309.9,194.93v-5.19h.79v.74a1.87,1.87,0,0,1,1.65-.86,2.25,2.25,0,0,1,.87.17,1.34,1.34,0,0,1,.58.44,1.73,1.73,0,0,1,.28.65,5.4,5.4,0,0,1,.05.86v3.19h-.88v-3.16a2.6,2.6,0,0,0-.1-.8.85.85,0,0,0-.37-.43,1.2,1.2,0,0,0-.61-.15,1.4,1.4,0,0,0-1,.35,1.77,1.77,0,0,0-.41,1.35v2.84Z"/><path data-cppathid="10080" d="M317.58,195.05l2.08-7.4h.7l-2.07,7.4Z"/><path data-cppathid="10081" d="M247.93,206.93v-6.32h-2.36v-.84h5.67v.84h-2.37v6.32Z"/><path data-cppathid="10082" d="M251.72,206.93v-5.19h.79v.79a2.16,2.16,0,0,1,.56-.73,1,1,0,0,1,.56-.18,1.74,1.74,0,0,1,.91.29l-.31.81a1.31,1.31,0,0,0-.64-.19.82.82,0,0,0-.52.18.94.94,0,0,0-.33.48,3.64,3.64,0,0,0-.14,1v2.72Z"/><path data-cppathid="10083" d="M258.44,206.29a3.24,3.24,0,0,1-.94.58,2.57,2.57,0,0,1-1,.17,1.92,1.92,0,0,1-1.31-.41,1.38,1.38,0,0,1-.46-1.07,1.51,1.51,0,0,1,.17-.7,1.48,1.48,0,0,1,.46-.5,2.26,2.26,0,0,1,.63-.29,5.14,5.14,0,0,1,.78-.13,9.3,9.3,0,0,0,1.57-.3v-.23a1,1,0,0,0-.24-.76,1.49,1.49,0,0,0-1-.3,1.51,1.51,0,0,0-.91.22,1.32,1.32,0,0,0-.44.77l-.86-.12a2.15,2.15,0,0,1,.39-.89,1.67,1.67,0,0,1,.77-.52,3.56,3.56,0,0,1,1.18-.19,3.24,3.24,0,0,1,1.08.16,1.43,1.43,0,0,1,.61.39,1.38,1.38,0,0,1,.27.6,4.68,4.68,0,0,1,.05.81v1.17a14.76,14.76,0,0,0,.05,1.55,2.08,2.08,0,0,0,.23.63h-.92A2.08,2.08,0,0,1,258.44,206.29Zm-.07-2a7,7,0,0,1-1.44.34,3.51,3.51,0,0,0-.76.17.77.77,0,0,0-.35.29.74.74,0,0,0-.12.42.77.77,0,0,0,.26.58,1.14,1.14,0,0,0,.78.24,1.84,1.84,0,0,0,.91-.23,1.4,1.4,0,0,0,.58-.6,2.24,2.24,0,0,0,.14-.88Z"/><path data-cppathid="10084" d="M260.63,200.78v-1h.87v1Zm0,6.15v-5.19h.87v5.19Z"/><path data-cppathid="10085" d="M262.84,206.93v-5.19h.79v.74a1.87,1.87,0,0,1,1.65-.86,2.25,2.25,0,0,1,.87.17,1.34,1.34,0,0,1,.58.44,1.73,1.73,0,0,1,.28.65,5.4,5.4,0,0,1,.05.86v3.19h-.88v-3.16a2.28,2.28,0,0,0-.11-.8.79.79,0,0,0-.36-.43,1.2,1.2,0,0,0-.61-.15,1.4,1.4,0,0,0-1,.35,1.77,1.77,0,0,0-.41,1.35v2.84Z"/><path data-cppathid="10086" d="M268.41,200.78v-1h.88v1Zm0,6.15v-5.19h.88v5.19Z"/><path data-cppathid="10087" d="M270.63,206.93v-5.19h.79v.74a1.87,1.87,0,0,1,1.65-.86,2.2,2.2,0,0,1,.86.17,1.37,1.37,0,0,1,.59.44,1.72,1.72,0,0,1,.27.65,5.4,5.4,0,0,1,0,.86v3.19H274v-3.16a2.32,2.32,0,0,0-.1-.8.85.85,0,0,0-.37-.43,1.17,1.17,0,0,0-.61-.15,1.41,1.41,0,0,0-1,.35,1.77,1.77,0,0,0-.41,1.35v2.84Z"/><path data-cppathid="10088" d="M276,207.36l.85.12a.84.84,0,0,0,.3.58,1.47,1.47,0,0,0,.89.24,1.57,1.57,0,0,0,.94-.24,1.12,1.12,0,0,0,.45-.68,5.41,5.41,0,0,0,.07-1.13,1.84,1.84,0,0,1-1.44.68,2,2,0,0,1-1.65-.77,3,3,0,0,1-.59-1.86,3.37,3.37,0,0,1,.27-1.36,2.08,2.08,0,0,1,2-1.32,1.85,1.85,0,0,1,1.51.75v-.63h.81v4.48a4.16,4.16,0,0,1-.25,1.72,1.77,1.77,0,0,1-.78.8,2.73,2.73,0,0,1-1.31.29,2.47,2.47,0,0,1-1.5-.42A1.37,1.37,0,0,1,276,207.36Zm.72-3.12a2.25,2.25,0,0,0,.41,1.49,1.33,1.33,0,0,0,2,0,2.19,2.19,0,0,0,.41-1.46,2.17,2.17,0,0,0-.42-1.44,1.31,1.31,0,0,0-1-.48,1.28,1.28,0,0,0-1,.48A2.14,2.14,0,0,0,276.75,204.24Z"/><path data-cppathid="10089" d="M284.63,206.93v-7.16h1l3.76,5.62v-5.62h.91v7.16h-1l-3.76-5.63v5.63Z"/><path data-cppathid="10090" d="M295.3,205.26l.91.11a2.22,2.22,0,0,1-.8,1.23,2.35,2.35,0,0,1-1.48.44,2.38,2.38,0,0,1-1.81-.7,2.73,2.73,0,0,1-.66-2,2.86,2.86,0,0,1,.67-2,2.26,2.26,0,0,1,1.75-.73,2.23,2.23,0,0,1,1.7.71,2.81,2.81,0,0,1,.66,2c0,.06,0,.13,0,.24h-3.87a2.05,2.05,0,0,0,.49,1.31,1.44,1.44,0,0,0,1.08.45,1.36,1.36,0,0,0,.83-.25A1.72,1.72,0,0,0,295.3,205.26Zm-2.89-1.42h2.9a1.81,1.81,0,0,0-.33-1,1.47,1.47,0,0,0-2.11-.1A1.59,1.59,0,0,0,292.41,203.84Z"/><path data-cppathid="10091" d="M300.86,205.26l.91.11a2.22,2.22,0,0,1-.8,1.23,2.35,2.35,0,0,1-1.48.44,2.38,2.38,0,0,1-1.81-.7,2.73,2.73,0,0,1-.66-2,2.86,2.86,0,0,1,.67-2,2.26,2.26,0,0,1,1.75-.73,2.23,2.23,0,0,1,1.7.71,2.81,2.81,0,0,1,.66,2,2.37,2.37,0,0,1,0,.24h-3.86a2,2,0,0,0,.48,1.31,1.44,1.44,0,0,0,1.08.45,1.36,1.36,0,0,0,.83-.25A1.65,1.65,0,0,0,300.86,205.26ZM298,203.84h2.9a1.81,1.81,0,0,0-.33-1,1.38,1.38,0,0,0-1.09-.5,1.39,1.39,0,0,0-1,.4A1.63,1.63,0,0,0,298,203.84Z"/><path data-cppathid="10092" d="M306.24,206.93v-.66a1.61,1.61,0,0,1-1.45.77,2,2,0,0,1-1.14-.34,2.22,2.22,0,0,1-.81-.95,3.32,3.32,0,0,1-.29-1.41,3.73,3.73,0,0,1,.26-1.41,2,2,0,0,1,1.94-1.31,1.73,1.73,0,0,1,.83.2,1.78,1.78,0,0,1,.6.52v-2.57h.87v7.16Zm-2.78-2.59a2.26,2.26,0,0,0,.42,1.49,1.25,1.25,0,0,0,2,0,2.15,2.15,0,0,0,.4-1.44,2.45,2.45,0,0,0-.41-1.56,1.26,1.26,0,0,0-1-.5,1.22,1.22,0,0,0-1,.48A2.38,2.38,0,0,0,303.46,204.34Z"/><path data-cppathid="10093" d="M308.08,205.38l.87-.14a1.22,1.22,0,0,0,.41.8,1.38,1.38,0,0,0,.93.28,1.33,1.33,0,0,0,.9-.25.7.7,0,0,0,.29-.57.53.53,0,0,0-.25-.47,3.66,3.66,0,0,0-.9-.3,7.73,7.73,0,0,1-1.34-.42,1.33,1.33,0,0,1-.57-.5,1.28,1.28,0,0,1-.19-.69,1.27,1.27,0,0,1,.16-.64,1.35,1.35,0,0,1,.43-.49,1.62,1.62,0,0,1,.56-.26,2.63,2.63,0,0,1,.76-.11,3,3,0,0,1,1.07.18,1.49,1.49,0,0,1,.68.48,1.72,1.72,0,0,1,.3.8l-.86.12a.94.94,0,0,0-.34-.63,1.22,1.22,0,0,0-.79-.22,1.38,1.38,0,0,0-.86.2.56.56,0,0,0-.26.47.43.43,0,0,0,.11.3.71.71,0,0,0,.33.24c.09,0,.35.11.78.22a11,11,0,0,1,1.3.41,1.34,1.34,0,0,1,.58.46,1.28,1.28,0,0,1,.21.75,1.48,1.48,0,0,1-.26.83,1.65,1.65,0,0,1-.74.6,2.68,2.68,0,0,1-1.09.21,2.42,2.42,0,0,1-1.54-.42A1.92,1.92,0,0,1,308.08,205.38Z"/><path data-cppathid="10094" d="M458.48,183.11a3.87,3.87,0,0,1,1-2.79,3.23,3.23,0,0,1,2.47-1,3.49,3.49,0,0,1,1.79.47,3.15,3.15,0,0,1,1.21,1.32,4.3,4.3,0,0,1,.42,1.92,4.24,4.24,0,0,1-.44,1.95,3,3,0,0,1-1.25,1.3,3.57,3.57,0,0,1-3.54,0,3.2,3.2,0,0,1-1.21-1.34A4,4,0,0,1,458.48,183.11Zm1,0a2.86,2.86,0,0,0,.7,2,2.25,2.25,0,0,0,1.74.74,2.29,2.29,0,0,0,1.76-.75,3,3,0,0,0,.69-2.13,3.83,3.83,0,0,0-.29-1.53,2.31,2.31,0,0,0-2.14-1.37,2.46,2.46,0,0,0-1.74.69A3.1,3.1,0,0,0,459.46,183.12Z"/><path data-cppathid="10095" d="M468.36,185.81l.12.77a2.75,2.75,0,0,1-.66.08,1.49,1.49,0,0,1-.74-.15.79.79,0,0,1-.37-.4,2.9,2.9,0,0,1-.11-1v-3H466v-.68h.65v-1.29l.87-.52v1.81h.89v.68h-.89v3a1.57,1.57,0,0,0,0,.49.35.35,0,0,0,.15.17.61.61,0,0,0,.3.06Z"/><path data-cppathid="10096" d="M469.22,186.59v-7.15h.87V182a2,2,0,0,1,1.56-.71,2.14,2.14,0,0,1,1,.23,1.38,1.38,0,0,1,.61.63,2.9,2.9,0,0,1,.18,1.16v3.28h-.88v-3.28a1.36,1.36,0,0,0-.29-1,1.06,1.06,0,0,0-.8-.3,1.4,1.4,0,0,0-.74.2,1.18,1.18,0,0,0-.49.55,2.47,2.47,0,0,0-.15,1v2.83Z"/><path data-cppathid="10097" d="M478.33,184.92l.9.12a2.16,2.16,0,0,1-.79,1.23,2.42,2.42,0,0,1-1.49.44,2.36,2.36,0,0,1-1.8-.7,2.76,2.76,0,0,1-.67-2,2.88,2.88,0,0,1,.68-2,2.28,2.28,0,0,1,1.75-.72,2.2,2.2,0,0,1,1.69.71,2.8,2.8,0,0,1,.66,2v.24h-3.87a2,2,0,0,0,.49,1.3A1.41,1.41,0,0,0,477,186a1.32,1.32,0,0,0,.82-.26A1.73,1.73,0,0,0,478.33,184.92Zm-2.89-1.42h2.9a1.72,1.72,0,0,0-.34-1,1.34,1.34,0,0,0-1.08-.51,1.39,1.39,0,0,0-1,.41A1.58,1.58,0,0,0,475.44,183.5Z"/><path data-cppathid="10098" d="M480.33,186.59v-5.18h.79v.78a2.1,2.1,0,0,1,.56-.72,1,1,0,0,1,.56-.18,1.72,1.72,0,0,1,.91.28l-.31.82a1.21,1.21,0,0,0-.64-.19.87.87,0,0,0-.52.17,1,1,0,0,0-.33.48,3.77,3.77,0,0,0-.14,1v2.71Z"/><path data-cppathid="10099" d="M486.53,186.59v-7.15H488l1.69,5.06c.16.48.27.83.34,1.06.08-.26.21-.64.38-1.14l1.72-5h1.27v7.15h-.91v-6l-2.08,6h-.86l-2.07-6.09v6.09Z"/><path data-cppathid="10100" d="M494.78,180.45v-1h.88v1Zm0,6.14v-5.18h.88v5.18Z"/><path data-cppathid="10101" d="M496.65,185.05l.87-.14a1.19,1.19,0,0,0,.4.8,1.42,1.42,0,0,0,.94.28,1.36,1.36,0,0,0,.9-.25.75.75,0,0,0,.29-.58.55.55,0,0,0-.26-.47,4.38,4.38,0,0,0-.9-.29,8.85,8.85,0,0,1-1.34-.43,1.23,1.23,0,0,1-.56-.49,1.3,1.3,0,0,1-.2-.7,1.41,1.41,0,0,1,.16-.64,1.55,1.55,0,0,1,.43-.49,2,2,0,0,1,.56-.25,2.68,2.68,0,0,1,.76-.11,2.89,2.89,0,0,1,1.07.18,1.44,1.44,0,0,1,.69.47,2,2,0,0,1,.3.81l-.86.11a.94.94,0,0,0-.34-.62,1.24,1.24,0,0,0-.79-.23,1.46,1.46,0,0,0-.87.2.6.6,0,0,0-.26.47.49.49,0,0,0,.11.31.75.75,0,0,0,.34.23c.09,0,.34.11.77.23a9.15,9.15,0,0,1,1.31.41,1.3,1.3,0,0,1,.57.46,1.28,1.28,0,0,1,.21.75,1.49,1.49,0,0,1-.25.83,1.65,1.65,0,0,1-.74.6,2.73,2.73,0,0,1-1.1.21,2.46,2.46,0,0,1-1.54-.42A1.91,1.91,0,0,1,496.65,185.05Z"/><path data-cppathid="10102" d="M505.38,184.69l.87.12a2.3,2.3,0,0,1-.73,1.4,2.15,2.15,0,0,1-1.43.5,2.2,2.2,0,0,1-1.71-.7,2.8,2.8,0,0,1-.65-2,3.54,3.54,0,0,1,.28-1.47,1.91,1.91,0,0,1,.85-.94,2.48,2.48,0,0,1,1.23-.32,2.14,2.14,0,0,1,1.39.43,2,2,0,0,1,.68,1.21l-.85.13a1.4,1.4,0,0,0-.43-.78,1.11,1.11,0,0,0-.75-.27,1.36,1.36,0,0,0-1.08.48,2.25,2.25,0,0,0-.42,1.51,2.35,2.35,0,0,0,.4,1.51,1.31,1.31,0,0,0,1.05.48,1.24,1.24,0,0,0,.86-.32A1.58,1.58,0,0,0,505.38,184.69Z"/><path data-cppathid="10103" d="M506.67,184a2.67,2.67,0,0,1,.8-2.13,2.39,2.39,0,0,1,1.63-.58,2.31,2.31,0,0,1,1.75.7,2.68,2.68,0,0,1,.68,1.94,3.43,3.43,0,0,1-.3,1.57,2.13,2.13,0,0,1-.87.89,2.59,2.59,0,0,1-1.26.32,2.33,2.33,0,0,1-1.76-.7A2.8,2.8,0,0,1,506.67,184Zm.9,0a2.21,2.21,0,0,0,.44,1.49,1.44,1.44,0,0,0,2.18,0,2.26,2.26,0,0,0,.44-1.52,2.16,2.16,0,0,0-.44-1.46,1.46,1.46,0,0,0-2.18,0A2.21,2.21,0,0,0,507.57,184Z"/><path data-cppathid="10104" d="M512.56,186.59v-5.18h.79v.74a1.87,1.87,0,0,1,1.65-.86,2.2,2.2,0,0,1,.86.17,1.31,1.31,0,0,1,.59.44,1.83,1.83,0,0,1,.28.65,5.6,5.6,0,0,1,0,.85v3.19h-.87v-3.15a2.24,2.24,0,0,0-.11-.8.88.88,0,0,0-.36-.43,1.13,1.13,0,0,0-.61-.16,1.4,1.4,0,0,0-1,.36,1.73,1.73,0,0,0-.41,1.35v2.83Z"/><path data-cppathid="10105" d="M521.49,186.59v-.65a1.63,1.63,0,0,1-1.45.77,2,2,0,0,1-1.14-.34,2.25,2.25,0,0,1-.81-1,3.24,3.24,0,0,1-.29-1.4,3.73,3.73,0,0,1,.26-1.41,2,2,0,0,1,.78-1,2,2,0,0,1,1.16-.34,1.73,1.73,0,0,1,.83.2,1.76,1.76,0,0,1,.6.51v-2.56h.87v7.15ZM518.71,184a2.22,2.22,0,0,0,.42,1.48,1.24,1.24,0,0,0,2,0,2.19,2.19,0,0,0,.4-1.44,2.45,2.45,0,0,0-.41-1.56,1.24,1.24,0,0,0-1-.5,1.22,1.22,0,0,0-1,.48A2.38,2.38,0,0,0,518.71,184Z"/><path data-cppathid="10106" d="M527.08,186.59v-.76a1.88,1.88,0,0,1-1.64.88,2,2,0,0,1-.86-.18,1.31,1.31,0,0,1-.59-.44,1.54,1.54,0,0,1-.27-.65,4,4,0,0,1-.06-.82v-3.21h.88v2.87a4.62,4.62,0,0,0,.06.93.93.93,0,0,0,.35.55,1.09,1.09,0,0,0,.66.19,1.37,1.37,0,0,0,.74-.2,1.09,1.09,0,0,0,.49-.55,2.65,2.65,0,0,0,.15-1v-2.78h.88v5.18Z"/><path data-cppathid="10107" d="M532.63,184.69l.86.12a2.24,2.24,0,0,1-.72,1.4,2.16,2.16,0,0,1-1.44.5,2.2,2.2,0,0,1-1.71-.7,2.8,2.8,0,0,1-.64-2,3.71,3.71,0,0,1,.27-1.47,2,2,0,0,1,.85-.94,2.52,2.52,0,0,1,1.24-.32,2.13,2.13,0,0,1,1.38.43,1.94,1.94,0,0,1,.69,1.21l-.85.13a1.41,1.41,0,0,0-.44-.78,1.08,1.08,0,0,0-.75-.27,1.37,1.37,0,0,0-1.08.48,3,3,0,0,0,0,3,1.3,1.3,0,0,0,1,.48,1.24,1.24,0,0,0,.87-.32A1.58,1.58,0,0,0,532.63,184.69Z"/><path data-cppathid="10108" d="M536.16,185.81l.13.77a2.81,2.81,0,0,1-.66.08,1.56,1.56,0,0,1-.75-.15.84.84,0,0,1-.37-.4,3.25,3.25,0,0,1-.1-1v-3h-.65v-.68h.65v-1.29l.87-.52v1.81h.88v.68h-.88v3a1.57,1.57,0,0,0,.05.49.35.35,0,0,0,.15.17.61.61,0,0,0,.3.06Z"/><path data-cppathid="10109" d="M539.91,186.59v-7.15h2.7a7.38,7.38,0,0,1,1.09.06,2.15,2.15,0,0,1,.89.34,1.71,1.71,0,0,1,.57.69,2.14,2.14,0,0,1,.22,1,2.23,2.23,0,0,1-.58,1.54,2.8,2.8,0,0,1-2.1.63h-1.84v2.91Zm1-3.75h1.85a2,2,0,0,0,1.31-.34,1.25,1.25,0,0,0,.38-1,1.22,1.22,0,0,0-.23-.76,1.05,1.05,0,0,0-.59-.43,4.35,4.35,0,0,0-.89-.06h-1.83Z"/><path data-cppathid="10110" d="M546.46,186.59v-5.18h.79v.78a2.1,2.1,0,0,1,.56-.72,1,1,0,0,1,.57-.18,1.71,1.71,0,0,1,.9.28l-.3.82a1.25,1.25,0,0,0-.65-.19.9.9,0,0,0-.52.17,1,1,0,0,0-.32.48,3.42,3.42,0,0,0-.15,1v2.71Z"/><path data-cppathid="10111" d="M553.35,184.92l.91.12a2.17,2.17,0,0,1-.8,1.23,2.7,2.7,0,0,1-3.29-.26,2.76,2.76,0,0,1-.66-2,2.87,2.87,0,0,1,.67-2,2.28,2.28,0,0,1,1.75-.72,2.23,2.23,0,0,1,1.7.71,2.8,2.8,0,0,1,.66,2s0,.13,0,.24h-3.86a2,2,0,0,0,.48,1.3A1.41,1.41,0,0,0,552,186a1.35,1.35,0,0,0,.83-.26A1.65,1.65,0,0,0,553.35,184.92Zm-2.88-1.42h2.89a1.8,1.8,0,0,0-.33-1,1.34,1.34,0,0,0-1.09-.51,1.42,1.42,0,0,0-1,.41A1.57,1.57,0,0,0,550.47,183.5Z"/><path data-cppathid="10112" d="M555,185.05l.87-.14a1.2,1.2,0,0,0,.41.8,1.38,1.38,0,0,0,.93.28,1.33,1.33,0,0,0,.9-.25.72.72,0,0,0,.29-.58.54.54,0,0,0-.25-.47,4.38,4.38,0,0,0-.9-.29,8.47,8.47,0,0,1-1.34-.43,1.31,1.31,0,0,1-.57-.49,1.37,1.37,0,0,1,0-1.34,1.44,1.44,0,0,1,.43-.49,1.84,1.84,0,0,1,.56-.25,2.63,2.63,0,0,1,.76-.11,3,3,0,0,1,1.07.18,1.4,1.4,0,0,1,.68.47,1.76,1.76,0,0,1,.3.81l-.86.11a.94.94,0,0,0-.34-.62,1.22,1.22,0,0,0-.79-.23,1.45,1.45,0,0,0-.86.2.57.57,0,0,0-.26.47.48.48,0,0,0,.1.31.88.88,0,0,0,.34.23c.09,0,.35.11.78.23a9.35,9.35,0,0,1,1.3.41,1.33,1.33,0,0,1,.58.46,1.28,1.28,0,0,1,.21.75,1.5,1.5,0,0,1-.26.83,1.65,1.65,0,0,1-.74.6,2.72,2.72,0,0,1-1.09.21,2.42,2.42,0,0,1-1.54-.42A1.92,1.92,0,0,1,555,185.05Z"/><path data-cppathid="10113" d="M563.91,184.92l.91.12a2.17,2.17,0,0,1-.8,1.23,2.39,2.39,0,0,1-1.48.44,2.34,2.34,0,0,1-1.8-.7,2.72,2.72,0,0,1-.67-2,2.87,2.87,0,0,1,.67-2,2.3,2.3,0,0,1,1.75-.72,2.22,2.22,0,0,1,1.7.71,2.8,2.8,0,0,1,.66,2v.24H561a2,2,0,0,0,.48,1.3,1.42,1.42,0,0,0,1.09.46,1.34,1.34,0,0,0,.82-.26A1.65,1.65,0,0,0,563.91,184.92ZM561,183.5h2.89a1.8,1.8,0,0,0-.33-1,1.34,1.34,0,0,0-1.09-.51,1.42,1.42,0,0,0-1,.41A1.62,1.62,0,0,0,561,183.5Z"/><path data-cppathid="10114" d="M565.92,186.59v-5.18h.8v.74a1.87,1.87,0,0,1,1.65-.86,2.2,2.2,0,0,1,.86.17,1.37,1.37,0,0,1,.59.44,1.66,1.66,0,0,1,.27.65,5.26,5.26,0,0,1,0,.85v3.19h-.88v-3.15a2.28,2.28,0,0,0-.1-.8.85.85,0,0,0-.37-.43,1.11,1.11,0,0,0-.61-.16,1.42,1.42,0,0,0-1,.36,1.77,1.77,0,0,0-.41,1.35v2.83Z"/><path data-cppathid="10115" d="M573.4,185.81l.13.77a2.81,2.81,0,0,1-.66.08,1.49,1.49,0,0,1-.74-.15.86.86,0,0,1-.38-.4,3.25,3.25,0,0,1-.1-1v-3H571v-.68h.65v-1.29l.87-.52v1.81h.88v.68h-.88v3a1.57,1.57,0,0,0,.05.49.35.35,0,0,0,.15.17.61.61,0,0,0,.3.06Z"/></svg>