<?xml version="1.0" encoding="UTF-8"?>
<svg xmlns="http://www.w3.org/2000/svg" onmouseup="{ if(window.parent.document.onmouseup) window.parent.document.onmouseup(arguments[0]);}" xml:space="preserve" enable-background="new 0 0 380 138" viewBox="0 0 380 138" y="0px" x="0px" id="Layer_1" version="1.1" xmlns:xlink="http://www.w3.org/1999/xlink"><path data-cppathid="10000" d="M352.5,122.9H9.8V37c0-10.1,8.2-18.3,18.3-18.3h342.7v85.9C370.8,114.7,362.6,122.9,352.5,122.9z" fill="#FFCC33"/><g><path data-cppathid="10001" d="M69.3,75.7l3.1,0.8c-0.7,2.6-1.8,4.6-3.6,5.9c-1.7,1.4-3.8,2-6.3,2c-2.6,0-4.6-0.5-6.2-1.6s-2.8-2.6-3.7-4.5   c-0.8-2-1.3-4.1-1.3-6.4c0-2.5,0.5-4.6,1.4-6.5s2.3-3.2,4-4.2c1.7-1,3.7-1.4,5.8-1.4c2.4,0,4.4,0.6,6,1.8c1.6,1.2,2.8,2.9,3.4,5.1   l-3.1,0.7c-0.6-1.7-1.4-3-2.4-3.8c-1-0.8-2.4-1.2-4-1.2c-1.8,0-3.4,0.4-4.6,1.3c-1.2,0.9-2.1,2.1-2.6,3.5s-0.7,3-0.7,4.6   c0,2,0.3,3.8,0.9,5.3c0.6,1.5,1.5,2.6,2.7,3.4c1.2,0.7,2.6,1.1,4,1.1c1.8,0,3.3-0.5,4.5-1.5C68,79.2,68.9,77.7,69.3,75.7z"/><path data-cppathid="10002" d="M75.9,84V60.2h2.9V84H75.9z"/><path data-cppathid="10003" d="M83.3,63.6v-3.4h2.9v3.4H83.3z M83.3,84V66.8h2.9V84H83.3z"/><path data-cppathid="10004" d="M101.9,77.7l2.9,0.4c-0.3,2-1.1,3.5-2.4,4.6c-1.3,1.1-2.9,1.7-4.8,1.7c-2.4,0-4.3-0.8-5.7-2.3c-1.4-1.5-2.1-3.7-2.1-6.6   c0-1.9,0.3-3.5,0.9-4.9c0.6-1.4,1.6-2.4,2.8-3.1c1.3-0.7,2.6-1,4.1-1c1.9,0,3.4,0.5,4.6,1.4c1.2,0.9,2,2.3,2.3,4l-2.8,0.4   c-0.3-1.2-0.7-2-1.4-2.6s-1.5-0.9-2.5-0.9c-1.5,0-2.7,0.5-3.6,1.6c-0.9,1.1-1.4,2.7-1.4,5c0,2.3,0.4,4,1.3,5c0.9,1,2,1.6,3.5,1.6   c1.1,0,2.1-0.4,2.9-1.1C101.2,80.2,101.7,79.2,101.9,77.7z"/><path data-cppathid="10005" d="M107.3,84V60.2h2.9v13.6l6.9-7h3.8l-6.6,6.4l7.2,10.8H118l-5.7-8.8l-2.1,2V84H107.3z"/><path data-cppathid="10006" d="M139.5,81.4l0.4,2.6c-0.8,0.2-1.6,0.3-2.2,0.3c-1.1,0-1.9-0.2-2.5-0.5c-0.6-0.3-1-0.8-1.2-1.3c-0.2-0.5-0.4-1.7-0.4-3.4   v-9.9h-2.1v-2.3h2.1v-4.3l2.9-1.8v6h2.9v2.3h-2.9v10.1c0,0.8,0.1,1.4,0.2,1.6c0.1,0.2,0.3,0.4,0.5,0.6c0.2,0.1,0.6,0.2,1,0.2   C138.5,81.5,139,81.5,139.5,81.4z"/><path data-cppathid="10007" d="M141.3,75.4c0-3.2,0.9-5.5,2.7-7.1c1.5-1.3,3.3-1.9,5.4-1.9c2.4,0,4.3,0.8,5.8,2.3s2.3,3.7,2.3,6.4c0,2.2-0.3,4-1,5.2   c-0.7,1.3-1.6,2.3-2.9,3c-1.3,0.7-2.7,1.1-4.2,1.1c-2.4,0-4.4-0.8-5.8-2.3C142,80.5,141.3,78.3,141.3,75.4z M144.3,75.4   c0,2.2,0.5,3.9,1.4,5c1,1.1,2.2,1.6,3.6,1.6c1.4,0,2.7-0.6,3.6-1.7c1-1.1,1.4-2.8,1.4-5c0-2.1-0.5-3.7-1.5-4.8   c-1-1.1-2.2-1.6-3.6-1.6c-1.5,0-2.7,0.5-3.6,1.6C144.7,71.5,144.3,73.2,144.3,75.4z"/><path data-cppathid="10008" d="M170,84V60.2h2.9V84H170z"/><path data-cppathid="10009" d="M189.2,78.5l3,0.4c-0.5,1.8-1.4,3.1-2.6,4.1c-1.3,1-2.9,1.5-4.9,1.5c-2.5,0-4.5-0.8-6-2.3c-1.5-1.6-2.2-3.7-2.2-6.5   c0-2.9,0.7-5.1,2.2-6.7c1.5-1.6,3.4-2.4,5.8-2.4c2.3,0,4.2,0.8,5.6,2.4s2.2,3.8,2.2,6.6c0,0.2,0,0.4,0,0.8h-12.8   c0.1,1.9,0.6,3.3,1.6,4.3c1,1,2.2,1.5,3.6,1.5c1.1,0,2-0.3,2.7-0.8C188.2,80.6,188.8,79.7,189.2,78.5z M179.6,73.7h9.6   c-0.1-1.4-0.5-2.5-1.1-3.3c-0.9-1.1-2.1-1.7-3.6-1.7c-1.3,0-2.5,0.4-3.4,1.3C180.2,71,179.7,72.2,179.6,73.7z"/><path data-cppathid="10010" d="M207.1,81.9c-1.1,0.9-2.1,1.6-3.1,1.9c-1,0.4-2.1,0.6-3.2,0.6c-1.9,0-3.3-0.5-4.4-1.4s-1.5-2.1-1.5-3.5   c0-0.8,0.2-1.6,0.6-2.3s0.9-1.3,1.5-1.7c0.6-0.4,1.3-0.7,2.1-1c0.6-0.2,1.4-0.3,2.6-0.4c2.4-0.3,4.1-0.6,5.2-1c0-0.4,0-0.7,0-0.8   c0-1.2-0.3-2-0.8-2.5c-0.7-0.7-1.9-1-3.3-1c-1.4,0-2.4,0.2-3,0.7c-0.7,0.5-1.1,1.3-1.5,2.6l-2.9-0.4c0.3-1.2,0.7-2.2,1.3-3   c0.6-0.8,1.5-1.3,2.6-1.7s2.4-0.6,3.9-0.6c1.5,0,2.7,0.2,3.6,0.5c0.9,0.3,1.6,0.8,2,1.3c0.4,0.5,0.7,1.2,0.9,2   c0.1,0.5,0.1,1.4,0.1,2.7v3.9c0,2.7,0.1,4.4,0.2,5.1c0.1,0.7,0.4,1.4,0.7,2.1h-3C207.4,83.4,207.2,82.7,207.1,81.9z M206.9,75.4   c-1.1,0.4-2.6,0.8-4.8,1.1c-1.2,0.2-2,0.4-2.5,0.6c-0.5,0.2-0.9,0.5-1.2,0.9s-0.4,0.9-0.4,1.4c0,0.8,0.3,1.4,0.9,1.9   c0.6,0.5,1.5,0.8,2.6,0.8c1.1,0,2.1-0.2,3-0.7c0.9-0.5,1.5-1.2,1.9-2c0.3-0.7,0.5-1.6,0.5-2.9V75.4z"/><path data-cppathid="10011" d="M214.3,84V66.8h2.6v2.6c0.7-1.2,1.3-2,1.9-2.4c0.6-0.4,1.2-0.6,1.9-0.6c1,0,2,0.3,3,0.9l-1,2.7c-0.7-0.4-1.4-0.6-2.1-0.6   c-0.6,0-1.2,0.2-1.7,0.6c-0.5,0.4-0.9,0.9-1.1,1.6c-0.3,1-0.5,2.2-0.5,3.4v9H214.3z"/><path data-cppathid="10012" d="M225.4,84V66.8h2.6v2.4c1.3-1.9,3.1-2.8,5.5-2.8c1,0,2,0.2,2.9,0.6s1.5,0.9,2,1.5s0.7,1.3,0.9,2.2c0.1,0.5,0.2,1.5,0.2,2.8   V84h-2.9V73.5c0-1.2-0.1-2.1-0.3-2.7c-0.2-0.6-0.6-1.1-1.2-1.4s-1.3-0.5-2-0.5c-1.2,0-2.3,0.4-3.2,1.2s-1.4,2.3-1.4,4.5V84H225.4z"/><path data-cppathid="10013" d="M253.1,84V66.8h2.6v2.4c0.5-0.8,1.3-1.5,2.2-2s1.9-0.8,3.1-0.8c1.3,0,2.3,0.3,3.1,0.8c0.8,0.5,1.4,1.3,1.7,2.2   c1.4-2,3.1-3,5.3-3c1.7,0,3,0.5,3.9,1.4c0.9,0.9,1.4,2.4,1.4,4.4V84h-2.9V73.2c0-1.2-0.1-2-0.3-2.5s-0.5-0.9-1-1.2   s-1.1-0.5-1.8-0.5c-1.2,0-2.2,0.4-3,1.2c-0.8,0.8-1.2,2.1-1.2,3.9v10h-2.9V72.8c0-1.3-0.2-2.3-0.7-2.9c-0.5-0.6-1.3-1-2.3-1   c-0.8,0-1.6,0.2-2.3,0.6c-0.7,0.4-1.2,1.1-1.5,1.9s-0.5,2-0.5,3.6V84H253.1z"/><path data-cppathid="10014" d="M279.7,75.4c0-3.2,0.9-5.5,2.7-7.1c1.5-1.3,3.3-1.9,5.4-1.9c2.4,0,4.3,0.8,5.8,2.3s2.3,3.7,2.3,6.4c0,2.2-0.3,4-1,5.2   c-0.7,1.3-1.6,2.3-2.9,3c-1.3,0.7-2.7,1.1-4.2,1.1c-2.4,0-4.4-0.8-5.8-2.3C280.4,80.5,279.7,78.3,279.7,75.4z M282.7,75.4   c0,2.2,0.5,3.9,1.4,5c1,1.1,2.2,1.6,3.6,1.6c1.4,0,2.7-0.6,3.6-1.7s1.4-2.8,1.4-5c0-2.1-0.5-3.7-1.5-4.8c-1-1.1-2.2-1.6-3.6-1.6   c-1.5,0-2.7,0.5-3.6,1.6S282.7,73.2,282.7,75.4z"/><path data-cppathid="10015" d="M299.2,84V66.8h2.6v2.6c0.7-1.2,1.3-2,1.9-2.4c0.6-0.4,1.2-0.6,1.9-0.6c1,0,2,0.3,3,0.9l-1,2.7c-0.7-0.4-1.4-0.6-2.1-0.6   c-0.6,0-1.2,0.2-1.7,0.6c-0.5,0.4-0.9,0.9-1.1,1.6c-0.3,1-0.5,2.2-0.5,3.4v9H299.2z"/><path data-cppathid="10016" d="M322.1,78.5l3,0.4c-0.5,1.8-1.4,3.1-2.6,4.1c-1.3,1-2.9,1.5-4.9,1.5c-2.5,0-4.5-0.8-6-2.3c-1.5-1.6-2.2-3.7-2.2-6.5   c0-2.9,0.7-5.1,2.2-6.7c1.5-1.6,3.4-2.4,5.8-2.4c2.3,0,4.2,0.8,5.6,2.4s2.2,3.8,2.2,6.6c0,0.2,0,0.4,0,0.8h-12.8   c0.1,1.9,0.6,3.3,1.6,4.3c1,1,2.2,1.5,3.6,1.5c1.1,0,2-0.3,2.7-0.8C321,80.6,321.6,79.7,322.1,78.5z M312.5,73.7h9.6   c-0.1-1.4-0.5-2.5-1.1-3.3c-0.9-1.1-2.1-1.7-3.6-1.7c-1.3,0-2.5,0.4-3.4,1.3C313.1,71,312.6,72.2,312.5,73.7z"/></g></svg>