<?xml version="1.0" encoding="UTF-8"?>
<svg xmlns="http://www.w3.org/2000/svg" onmouseup="{ if(window.parent.document.onmouseup) window.parent.document.onmouseup(arguments[0]);}" viewBox="0 0 836 605" data-name="Layer 1" id="Layer_1"><path data-cppathid="10000" fill="#c1844d" d="M730,133l-6-1V119.5a12,12,0,0,0-12-12H109a12,12,0,0,0-12,12v361a12,12,0,0,0,12,12H712a12,12,0,0,0,12-12V266l6-1a9,9,0,0,0,9-9V142A9,9,0,0,0,730,133Z"/><rect data-cppathid="10001" fill="#8e6e54" height="364" width="2" y="119" x="407"/><rect data-cppathid="10002" fill="#fff" transform="translate(-8.92 17.28) rotate(-1.76)" height="350.78" width="274.81" y="124.13" x="421.63"/><rect data-cppathid="10003" fill="#dadce0" height="330.41" width="258.89" y="133.46" x="119.11"/><rect data-cppathid="10004" fill="#b99c80" transform="translate(-27.48 32.14) rotate(-9.19)" height="85.81" width="135.24" y="144.09" x="118.57"/><rect data-cppathid="10005" fill="#ebebeb" transform="translate(17.87 -12.38) rotate(3.24)" height="154.82" width="185.6" y="232.69" x="135.36"/></svg>